<?xml version="1.0" encoding="utf-8"?>
<!-- Generator: Adobe Illustrator 27.0.0, SVG Export Plug-In . SVG Version: 6.00 Build 0)  -->
<svg version="1.1" id="Layer_1" xmlns="http://www.w3.org/2000/svg" xmlns:xlink="http://www.w3.org/1999/xlink" x="0px" y="0px"
	 viewBox="0 0 500 500" style="enable-background:new 0 0 500 500;" xml:space="preserve">
<style type="text/css">
	.st0{fill:#FFFFFF;}
	.st1{fill:#3C1A5D;}
	.st2{fill:#5FB709;}
</style>
<path class="st0" d="M458.6,490H41.4C24.1,490,10,475.9,10,458.6V41.4C10,24.1,24.1,10,41.4,10h417.1c17.4,0,31.4,14.1,31.4,31.4
	v417.1C490,475.9,475.9,490,458.6,490z"/>
<g>
	<g>
		<g>
			<path class="st1" d="M248.8,67.3c-103.5,0-173,68.8-173,171.6c0,103.5,69.4,173,173,173c10.1,0,19.9-0.7,29.4-2l-24.1-71.7
				c-1.9,0.1-3.9,0.2-5.9,0.2c-55.5,0-92.2-36.8-92.2-98.8c0-62.1,36.8-98.9,92.2-98.9c56.1,0,92.8,36.8,92.8,98.9
				c0,24.6-5.7,45.1-16.2,61l76.8,25.2c12.7-24.8,19.6-54.1,19.6-86.9C421.1,136.1,352.3,67.3,248.8,67.3z"/>
		</g>
	</g>
	<polygon class="st2" points="262.8,301.4 434.1,357.5 377.2,386.4 434.1,441.7 404.3,471 348.5,414.5 319.8,471 	"/>
</g>
</svg>
